<svg width="308" height="254" viewBox="0 0 308 254" fill="none" xmlns="http://www.w3.org/2000/svg">
<path d="M11.7019 30.2873V14.4553C11.7019 14.4553 50.9377 33.0406 86.7317 53.0027C122.526 72.9648 150.748 101.187 150.748 101.187L11.7019 30.2873Z" fill="#1BA0D8"/>
<path d="M35.794 14.4553V0C35.794 0 61.9512 8.94851 99.8103 35.1057C137.669 61.2629 150.748 86.0434 150.748 86.0434L35.794 14.4553Z" fill="#1BA0D8"/>
<path d="M269.832 14.4553L154.878 86.0434C154.878 86.0434 172.775 56.4444 205.127 35.1057C237.48 13.7669 269.832 0 269.832 0V14.4553Z" fill="#1BA0D8"/>
<path d="M293.924 32.3523L154.878 101.187C154.878 101.187 187.23 68.8347 224.401 48.1843C261.572 27.5339 293.924 14.4553 293.924 14.4553V32.3523Z" fill="#1BA0D8"/>
<path fill-rule="evenodd" clip-rule="evenodd" d="M0 34.4174L11.0136 196.179L51.9386 212.867L52.2094 213.454L52.7583 213.201L152.813 254L295.301 196.867L302.416 98.0892L302.709 97.9541L302.464 97.4223L307.003 34.4174L152.813 109.447L0 34.4174ZM302.464 97.4223L302.416 98.0892L52.7583 213.201L51.9386 212.867L51.7906 212.546L302.291 97.0459L302.464 97.4223ZM175.571 128.582C176.415 127.569 177.311 126.848 178.258 126.419C179.933 125.658 181.551 125.723 183.111 126.611C184.67 127.499 185.904 128.945 186.813 130.949C187.568 132.612 187.87 134.262 187.718 135.897C187.548 137.716 186.843 139.244 185.603 140.48C184.927 141.153 184.14 141.693 183.241 142.1C182.343 142.508 181.464 142.782 180.606 142.923C179.759 143.058 179.119 143.099 178.686 143.047L178.017 142.977C177.985 142.875 177.708 141.909 177.186 140.082C176.101 136.269 174.9 132.912 173.584 130.01C173.149 129.051 172.755 128.41 172.404 128.086C173.857 127.837 174.913 128.002 175.571 128.582ZM180.494 141.37C181.05 141.337 181.62 141.189 182.203 140.925C183.259 140.445 184.016 139.692 184.472 138.665C184.941 137.633 185.122 136.548 185.016 135.41C184.922 134.267 184.624 133.142 184.123 132.037C183.418 130.483 182.508 129.366 181.394 128.685C180.28 128.005 179.159 127.921 178.029 128.433C177.325 128.752 176.755 129.143 176.32 129.603C176.656 130.344 177.338 132.282 178.365 135.418C179.404 138.548 180.114 140.532 180.494 141.37ZM189.495 122.397C189.68 122.547 189.818 122.704 189.907 122.869C190.008 123.028 190.161 123.332 190.365 123.781C190.569 124.23 191.093 125.918 191.937 128.844C192.781 131.77 193.454 133.785 193.955 134.89C194.451 135.983 194.875 136.691 195.226 137.015C194.073 137.216 193.209 137.183 192.634 136.917C192.054 136.638 191.585 136.105 191.227 135.315C191.018 134.854 190.614 133.624 190.015 131.627C189.048 128.302 188.177 125.784 187.4 124.072C187.235 123.708 186.985 123.221 186.65 122.612C187.595 122.241 188.335 122.081 188.87 122.132C189.096 122.146 189.304 122.234 189.495 122.397ZM206.13 126.885C206.624 126.779 206.95 126.901 207.11 127.253C207.029 128.301 206.773 129.237 206.342 130.062C205.911 130.887 205.436 131.519 204.918 131.959C204.401 132.399 203.826 132.762 203.195 133.049C201.762 133.699 200.312 133.698 198.845 133.046C197.377 132.393 196.17 131.023 195.223 128.935C194.165 126.603 193.866 124.345 194.324 122.161C194.561 121.102 195.036 120.132 195.75 119.252C196.47 118.354 197.437 117.63 198.651 117.079C199.878 116.523 200.955 116.429 201.884 116.799C202.82 117.15 203.488 117.769 203.89 118.656C204.287 119.53 204.369 120.356 204.137 121.135C203.899 121.902 203.392 122.462 202.615 122.814C202.347 122.935 202.016 123.027 201.62 123.09C201.731 122.658 201.752 122.107 201.682 121.436C201.612 120.765 201.458 120.169 201.222 119.647C200.985 119.125 200.67 118.755 200.279 118.537C199.887 118.319 199.43 118.329 198.908 118.566C198.107 118.929 197.553 119.627 197.245 120.66C196.937 121.693 196.871 122.821 197.045 124.045C197.22 125.269 197.569 126.457 198.092 127.611C198.797 129.165 199.635 130.205 200.606 130.731C201.577 131.257 202.535 131.305 203.482 130.876C204.077 130.606 204.606 130.125 205.068 129.432C205.529 128.739 205.884 127.89 206.13 126.885ZM204.099 116.475C203.908 115.99 203.791 115.604 203.749 115.316C205.159 114.94 206.781 114.335 208.615 113.504C210.448 112.672 212.267 111.583 214.073 110.237C214.566 111.873 214.165 113.072 212.872 113.835C212.474 114.088 211.846 114.446 210.987 114.909C211.123 115.272 211.622 116.905 212.485 119.808C213.342 122.699 214.005 124.66 214.473 125.692C214.941 126.724 215.351 127.402 215.703 127.726C214.55 127.927 213.686 127.894 213.111 127.628C212.531 127.349 212.092 126.882 211.795 126.226C211.497 125.571 211.005 124.081 210.317 121.758C209.635 119.417 209.022 117.565 208.477 116.202C207.515 116.696 206.561 117.159 205.614 117.588C205.055 117.842 204.55 117.47 204.099 116.475ZM218.149 109.398C218.335 109.548 218.472 109.705 218.561 109.87C218.663 110.029 218.815 110.333 219.019 110.782C219.223 111.232 219.747 112.919 220.591 115.845C221.435 118.771 222.108 120.786 222.609 121.891C223.105 122.984 223.529 123.692 223.88 124.016C222.727 124.217 221.863 124.184 221.288 123.918C220.708 123.64 220.239 123.106 219.881 122.316C219.672 121.855 219.268 120.625 218.669 118.628C217.703 115.303 216.831 112.785 216.054 111.073C215.889 110.709 215.639 110.222 215.304 109.613C216.249 109.243 216.989 109.083 217.524 109.133C217.75 109.147 217.959 109.236 218.149 109.398ZM233.07 109.284C232.299 107.584 231.503 106.459 230.682 105.908C229.874 105.353 229.063 105.26 228.249 105.629C227.448 105.992 226.846 106.697 226.442 107.744C226.045 108.774 225.885 109.922 225.963 111.19C226.052 112.453 226.348 113.636 226.849 114.741C227.538 116.259 228.351 117.391 229.29 118.136C230.24 118.876 231.225 119.015 232.245 118.552C233.095 118.167 233.674 117.457 233.982 116.425C234.296 115.375 234.36 114.225 234.175 112.977C233.989 111.729 233.621 110.498 233.07 109.284ZM236.422 115.801C236.145 116.644 235.677 117.435 235.017 118.174C234.368 118.907 233.558 119.494 232.587 119.935C231.616 120.375 230.66 120.545 229.721 120.444C228.795 120.337 227.947 120.019 227.18 119.489C225.645 118.428 224.436 116.926 223.555 114.984C222.674 113.041 222.368 111.093 222.639 109.14C222.922 107.182 223.78 105.636 225.213 104.502C225.321 104.483 225.434 104.49 225.552 104.524C225.682 104.553 225.773 104.607 225.824 104.687C224.775 106.539 224.533 108.522 225.098 110.638C224.957 108.974 225.216 107.51 225.872 106.246C226.535 104.964 227.456 104.056 228.633 103.522C229.811 102.987 231.044 103.043 232.333 103.688C233.628 104.316 234.71 105.589 235.581 107.508C236.434 109.39 236.851 111.243 236.829 113.069C236.829 114.035 236.693 114.946 236.422 115.801ZM249.347 110.948C248.985 110.731 247.639 109.717 245.309 107.904C242.985 106.074 241.35 104.81 240.404 104.112C240.542 104.547 240.791 105.386 241.15 106.628C241.891 109.133 242.625 111.186 243.352 112.789C243.523 113.165 243.775 113.658 244.11 114.268C243.26 114.653 242.64 114.818 242.248 114.761C241.863 114.687 241.588 114.468 241.422 114.104C241.373 113.994 240.835 112.276 239.809 108.95C238.778 105.611 237.982 103.307 237.421 102.039L237.15 101.877C236.642 101.565 236.071 101.37 235.435 101.293C235.281 101.275 235.186 101.259 235.151 101.246C235.574 100.63 236.052 100.2 236.587 99.9578C237.655 99.473 238.598 99.4699 239.415 99.9483C240.227 100.415 241.935 101.711 244.54 103.839C244.824 104.076 245.252 104.438 245.824 104.925C246.403 105.395 246.869 105.776 247.222 106.07C248.06 106.788 248.903 107.437 249.753 108.019C249.574 107.528 249.08 106.003 248.27 103.442C247.466 100.864 246.742 98.8646 246.098 97.444C245.927 97.0675 245.679 96.5868 245.355 96.0017C246.205 95.6161 246.82 95.4544 247.2 95.5165C247.579 95.5785 247.849 95.7856 248.009 96.1378C248.069 96.2713 248.637 98.0561 249.713 101.492C250.788 104.928 251.61 107.271 252.177 108.522C252.381 108.971 252.542 109.293 252.66 109.489C252.796 109.53 253 109.561 253.274 109.584C252.741 110.411 252.153 110.97 251.51 111.262C250.866 111.554 250.145 111.45 249.347 110.948ZM265.389 104.856C264.952 105.055 264.58 105.091 264.275 104.966C263.964 104.829 263.633 104.569 263.284 104.186C262.929 103.791 262.087 102.694 260.759 100.895C260.59 101.265 260.195 101.605 259.575 101.916L256.51 103.438C256.59 105.583 256.773 107.44 257.06 109.008C255.707 109.124 254.912 108.921 254.675 108.399C254.571 108.168 254.532 107.146 254.558 105.333C254.585 103.52 254.612 101.466 254.639 99.1693C254.673 96.8554 254.652 95.1957 254.577 94.1904L254.5 93.1492C254.325 93.0233 253.948 92.8211 253.368 92.5426C253.739 92.1986 254.082 91.955 254.398 91.8117C254.726 91.663 255.004 91.5661 255.232 91.521C255.473 91.4705 255.7 91.4701 255.913 91.5199C256.132 91.5521 256.33 91.6013 256.507 91.6676C256.696 91.7285 256.9 91.8555 257.119 92.0488C257.333 92.2299 257.52 92.4011 257.681 92.5623C257.837 92.7114 258.034 92.9367 258.273 93.2381C258.525 93.534 258.733 93.7985 258.897 94.0314C259.068 94.2467 259.298 94.5597 259.586 94.9704C259.882 95.3635 260.172 95.7444 260.456 96.1132C260.741 96.4819 261.269 97.1941 262.04 98.2496C262.806 99.2929 263.389 100.076 263.786 100.598C264.191 101.103 264.683 101.655 265.263 102.256C265.855 102.851 266.391 103.289 266.87 103.57C266.32 104.229 265.826 104.658 265.389 104.856ZM256.436 95.1915C256.443 95.6572 256.444 96.6597 256.439 98.1991C256.441 99.7208 256.455 100.93 256.481 101.826L260.215 100.132C258.454 97.768 257.195 96.1212 256.436 95.1915ZM270.598 102.515C269.906 102.829 269.353 102.934 268.939 102.829C268.525 102.723 268.189 102.386 267.93 101.815C267.671 101.244 267.089 99.4291 266.184 96.3696C265.286 93.2924 264.559 91.1407 264.003 89.9143C263.441 88.6758 262.99 87.9069 262.649 87.6076C263.919 87.1484 264.95 87.2589 265.742 87.9393C266.396 87.057 267.276 86.3652 268.38 85.8639C269.498 85.3572 270.554 85.2658 271.55 85.5899C272.553 85.8963 273.245 86.4684 273.625 87.3062C274.005 88.144 274.1 89.1113 273.909 90.208C273.713 91.2926 273.147 92.3035 272.21 93.2408L272.769 93.8437C273.823 95.0053 275.066 96.0667 276.498 97.0278C277.924 97.9767 279.008 98.5756 279.75 98.8244C279.356 99.1497 278.935 99.4142 278.485 99.618C278.048 99.8163 277.539 99.8716 276.957 99.784C276.381 99.7086 275.865 99.5697 275.407 99.3674C274.961 99.1596 274.388 98.768 273.688 98.1926C272.988 97.6172 272.465 97.1588 272.12 96.8176C271.775 96.4764 271.392 96.1009 270.972 95.6912C270.564 95.276 270.346 95.0529 270.317 95.022C270.288 94.9911 270.251 94.9569 270.204 94.9193C270.153 94.8696 270.11 94.8232 270.075 94.7802L269.292 95.1355L268.857 94.3224C270.372 93.5622 271.269 92.4891 271.548 91.1034C271.696 90.3333 271.633 89.6447 271.357 89.0375C271.253 88.8068 271.127 88.5932 270.979 88.3967C270.414 87.7011 269.7 87.4324 268.834 87.5907C268.588 87.6291 268.271 87.7365 267.882 87.9127C267.494 88.089 267.036 88.4506 266.508 88.9975C266.717 89.4589 267.227 91.0505 268.037 93.7723C268.854 96.4764 269.65 98.6845 270.427 100.397C270.774 101.162 271.08 101.74 271.346 102.132C270.969 102.332 270.719 102.46 270.598 102.515ZM281.213 88.4539L281.663 89.1064C281.992 86.8633 282.153 84.8137 282.145 82.9577C282.15 81.0961 282.018 79.7067 281.748 78.7895C282.89 78.8864 283.651 79.3537 284.031 80.1915C284.439 81.0901 284.112 84.4521 283.05 90.2777C283.6 92.005 284.075 93.3119 284.478 94.1983C284.88 95.0847 285.257 95.6897 285.608 96.0132C284.455 96.2143 283.591 96.1817 283.016 95.9153C282.436 95.6368 281.995 95.1636 281.692 94.4958C281.383 93.8158 281.036 92.8092 280.651 91.4759C277.248 87.427 274.75 84.907 273.159 83.916C273.513 83.3744 273.964 82.9797 274.51 82.7318C274.802 82.5996 275.058 82.5198 275.28 82.4924C275.508 82.4473 275.764 82.4779 276.046 82.584C276.329 82.6902 276.606 82.8647 276.877 83.1077C277.16 83.3451 277.519 83.7167 277.954 84.2224C278.664 85.0131 279.75 86.4235 281.213 88.4539ZM287 180C289.209 180 291 178.209 291 176C291 173.791 289.209 172 287 172C284.791 172 283 173.791 283 176C283 178.209 284.791 180 287 180ZM276 172C276 174.209 274.209 176 272 176C269.791 176 268 174.209 268 172C268 169.791 269.791 168 272 168C274.209 168 276 169.791 276 172ZM261 203C263.209 203 265 201.209 265 199C265 196.791 263.209 195 261 195C258.791 195 257 196.791 257 199C257 201.209 258.791 203 261 203ZM283 187.5C283 191.642 279.642 195 275.5 195C271.358 195 268 191.642 268 187.5C268 183.358 271.358 180 275.5 180C279.642 180 283 183.358 283 187.5ZM256.5 191C260.642 191 264 187.642 264 183.5C264 179.358 260.642 176 256.5 176C252.358 176 249 179.358 249 183.5C249 187.642 252.358 191 256.5 191Z" fill="#1BA0D8"/>
</svg>
